<svg xmlns="http://www.w3.org/2000/svg" width="400.138" height="110.288" viewBox="0 0 400.138 110.288">
  <g id="Group_2" data-name="Group 2" transform="translate(-1060 446)">
    <g id="Group_1" data-name="Group 1" transform="translate(944 923.674)">
      <g id="Group_12" data-name="Group 12" transform="translate(46.23 -1969.674)">
        <g id="Group_1-2" data-name="Group 1" transform="translate(-754.774 69.042)">
          <rect id="Rectangle_4" data-name="Rectangle 4" width="31.194" height="31.194" transform="translate(868.659 553.016) rotate(45)" fill="#ba1654" opacity="0.6"/>
          <path id="Rectangle_11" data-name="Rectangle 11" d="M0,0H31.194V31.194H4a4,4,0,0,1-4-4Z" transform="translate(846.602 575.073) rotate(45)" fill="#ba1654" opacity="0.8"/>
          <rect id="Rectangle_7" data-name="Rectangle 7" width="31.194" height="31.194" transform="translate(912.774 553.016) rotate(45)" fill="#ba1654" opacity="0.6"/>
          <rect id="Rectangle_9" data-name="Rectangle 9" width="31.194" height="31.194" transform="translate(890.716 575.073) rotate(45)" fill="#ba1654" opacity="0.8"/>
          <path id="Rectangle_13" data-name="Rectangle 13" d="M0,0H31.194V27.194a4,4,0,0,1-4,4H0Z" transform="translate(912.774 597.131) rotate(45)" fill="#ba1654"/>
          <path id="Rectangle_14" data-name="Rectangle 14" d="M0,0H31.194V27.194a4,4,0,0,1-4,4H0Z" transform="translate(868.659 597.131) rotate(45)" fill="#ba1654"/>
          <path id="Rectangle_15" data-name="Rectangle 15" d="M0,0H31.194V27.194a4,4,0,0,1-4,4H0Z" transform="translate(956.889 597.131) rotate(45)" fill="#ba1654"/>
          <rect id="Rectangle_10" data-name="Rectangle 10" width="31.194" height="31.194" transform="translate(934.831 575.073) rotate(45)" fill="#ba1654" opacity="0.8"/>
          <path id="Rectangle_12" data-name="Rectangle 12" d="M0,0H27.194a4,4,0,0,1,4,4V31.194H0Z" transform="translate(978.946 575.073) rotate(45)" fill="#ba1654" opacity="0.8"/>
          <rect id="Rectangle_8" data-name="Rectangle 8" width="31.194" height="31.194" transform="translate(956.889 553.016) rotate(45)" fill="#ba1654" opacity="0.6"/>
          <path id="Rectangle_5" data-name="Rectangle 5" d="M3,0H31.194V31.194H0V3A3,3,0,0,1,3,0Z" transform="translate(890.716 530.958) rotate(45)" fill="#ba1654" opacity="0.4"/>
          <path id="Rectangle_6" data-name="Rectangle 6" d="M3,0H31.194V31.194H0V3A3,3,0,0,1,3,0Z" transform="translate(934.831 530.958) rotate(45)" fill="#ba1654" opacity="0.4"/>
        </g>
      </g>
      <path id="Path_3" data-name="Path 3" d="M42.993-58.28v4.407a5.686,5.686,0,0,1-.307,1.842,7,7,0,0,1-.849,1.7L17.132-15.044H42.2v9.391H1.6v-4.7a4.874,4.874,0,0,1,.289-1.643,5.772,5.772,0,0,1,.795-1.5l24.778-35.4H3.623V-58.28ZM74.418-5.653a5.246,5.246,0,0,1-2.4-.433,3.311,3.311,0,0,1-1.354-1.806l-.795-2.059Q68.458-8.76,67.158-7.857a17.169,17.169,0,0,1-2.691,1.535,13.289,13.289,0,0,1-2.962.939,18.228,18.228,0,0,1-3.486.307,15.283,15.283,0,0,1-4.659-.668A9.721,9.721,0,0,1,49.8-7.712a8.656,8.656,0,0,1-2.257-3.233,11.658,11.658,0,0,1-.795-4.461,9.356,9.356,0,0,1,1.011-4.082,10.069,10.069,0,0,1,3.5-3.811,22.268,22.268,0,0,1,6.718-2.872,45.079,45.079,0,0,1,10.655-1.3v-1.589q0-3.287-1.354-4.75a4.982,4.982,0,0,0-3.847-1.463,10.2,10.2,0,0,0-3.251.433,14.614,14.614,0,0,0-2.257.975q-.993.542-1.932.975a5.308,5.308,0,0,1-2.239.433,3.385,3.385,0,0,1-1.969-.56A4.158,4.158,0,0,1,50.506-34.4l-2.023-3.5a22.769,22.769,0,0,1,7.531-4.461,26.4,26.4,0,0,1,8.867-1.463A16.217,16.217,0,0,1,71-42.73a13.176,13.176,0,0,1,4.623,3.07,13.415,13.415,0,0,1,2.908,4.678,16.81,16.81,0,0,1,1.011,5.924V-5.653ZM61.559-12.48a8.884,8.884,0,0,0,3.793-.759,11.554,11.554,0,0,0,3.287-2.456v-5.2a37.174,37.174,0,0,0-5.526.578,13.424,13.424,0,0,0-3.431,1.084,4.153,4.153,0,0,0-1.752,1.481,3.5,3.5,0,0,0-.488,1.806,3.138,3.138,0,0,0,1.047,2.691A5.111,5.111,0,0,0,61.559-12.48ZM87.493,6.23V-43.11h6.935a3.09,3.09,0,0,1,1.752.47,2.507,2.507,0,0,1,.993,1.409L98-38.486a18.824,18.824,0,0,1,2.33-2.167,15.35,15.35,0,0,1,2.673-1.68,14.73,14.73,0,0,1,3.07-1.1,15.284,15.284,0,0,1,3.594-.4,11.537,11.537,0,0,1,5.418,1.3,12.485,12.485,0,0,1,4.3,3.756,18.956,18.956,0,0,1,2.835,6.014,29.061,29.061,0,0,1,1.029,8.073,24.884,24.884,0,0,1-1.174,7.8,19.6,19.6,0,0,1-3.287,6.213,15.142,15.142,0,0,1-5.057,4.118,14.3,14.3,0,0,1-6.52,1.481,12.763,12.763,0,0,1-4.912-.831A13.336,13.336,0,0,1,98.69-8.145V6.23Zm18.277-41.5a9.675,9.675,0,0,0-2.221.235,8.162,8.162,0,0,0-1.842.668,6.985,6.985,0,0,0-1.571,1.1,16.319,16.319,0,0,0-1.445,1.535v15.893a7.078,7.078,0,0,0,2.745,1.969,8.711,8.711,0,0,0,3.106.56,6.6,6.6,0,0,0,2.853-.614,5.814,5.814,0,0,0,2.257-1.969,10.484,10.484,0,0,0,1.5-3.522,22.059,22.059,0,0,0,.542-5.274,24.26,24.26,0,0,0-.433-4.985,10.269,10.269,0,0,0-1.21-3.269,4.7,4.7,0,0,0-1.86-1.788A5.336,5.336,0,0,0,105.77-35.272ZM155.11-5.653a5.246,5.246,0,0,1-2.4-.433,3.311,3.311,0,0,1-1.354-1.806l-.795-2.059Q149.15-8.76,147.85-7.857a17.169,17.169,0,0,1-2.691,1.535,13.288,13.288,0,0,1-2.962.939,18.228,18.228,0,0,1-3.486.307,15.283,15.283,0,0,1-4.659-.668,9.721,9.721,0,0,1-3.558-1.969,8.656,8.656,0,0,1-2.258-3.233,11.659,11.659,0,0,1-.795-4.461,9.356,9.356,0,0,1,1.011-4.082,10.069,10.069,0,0,1,3.5-3.811,22.267,22.267,0,0,1,6.718-2.872,45.079,45.079,0,0,1,10.655-1.3v-1.589q0-3.287-1.355-4.75a4.982,4.982,0,0,0-3.847-1.463,10.2,10.2,0,0,0-3.251.433,14.614,14.614,0,0,0-2.258.975q-.993.542-1.932.975a5.308,5.308,0,0,1-2.239.433,3.385,3.385,0,0,1-1.969-.56A4.158,4.158,0,0,1,131.2-34.4l-2.023-3.5a22.769,22.769,0,0,1,7.531-4.461,26.4,26.4,0,0,1,8.867-1.463,16.217,16.217,0,0,1,6.122,1.1,13.176,13.176,0,0,1,4.623,3.07,13.415,13.415,0,0,1,2.908,4.678,16.81,16.81,0,0,1,1.011,5.924V-5.653ZM142.251-12.48a8.884,8.884,0,0,0,3.793-.759,11.554,11.554,0,0,0,3.287-2.456v-5.2a37.174,37.174,0,0,0-5.526.578,13.424,13.424,0,0,0-3.431,1.084,4.153,4.153,0,0,0-1.752,1.481,3.5,3.5,0,0,0-.488,1.806,3.138,3.138,0,0,0,1.047,2.691A5.111,5.111,0,0,0,142.251-12.48Zm25.934,6.827V-43.11h6.935a3.09,3.09,0,0,1,1.752.47,2.507,2.507,0,0,1,.993,1.409l.65,2.167a27.206,27.206,0,0,1,2.239-1.878,13.115,13.115,0,0,1,2.474-1.463,14.685,14.685,0,0,1,2.853-.939,15.313,15.313,0,0,1,3.341-.343,13.113,13.113,0,0,1,5.436,1.066,11.281,11.281,0,0,1,3.991,2.962,12.784,12.784,0,0,1,2.456,4.515,18.723,18.723,0,0,1,.831,5.689v23.8h-11.2v-23.8a6.55,6.55,0,0,0-1.264-4.28,4.541,4.541,0,0,0-3.72-1.535,7.791,7.791,0,0,0-3.467.795,13.483,13.483,0,0,0-3.106,2.131V-5.653Z" transform="translate(314 -1275.744)"/>
    </g>
    <path id="Path_2" data-name="Path 2" d="M14.531-66.289a.86.86,0,0,1,.2.469,15.808,15.808,0,0,0-.664,4.688v.625q.547,0,.547.9a5.391,5.391,0,0,1-.469,1.133q.2,1.289.313,1.8.078,0,.7-.117h.273a.63.63,0,0,1,.313.625v.2a4.822,4.822,0,0,1-.7,1.758q.43,2.148.977,2.148a4.306,4.306,0,0,0,.664,1.992l.625,1.055a3.205,3.205,0,0,1,.7-.117q.352,0,.469.82a2.733,2.733,0,0,0-.2.781v.078a13.43,13.43,0,0,0,1.563,1.953h.078q.859-.352.9-.352.586,0,.586.859,0,.039-.312.9a7.865,7.865,0,0,0,1.094,1.172h.2a1.928,1.928,0,0,1,.9-.469q.586,0,.586.859a34.234,34.234,0,0,1-2.344,4.414,2.733,2.733,0,0,0-.2.781h.078a9.876,9.876,0,0,1,2.266-.508q.82,0,.977,1.094v.039q0,.117-.2.2-.156,0-.312-.586l-.273-.117a13.492,13.492,0,0,0-2.344.664h-.2q-.547,0-.7-1.055a14.555,14.555,0,0,1,.977-2.148A7.59,7.59,0,0,0,22.7-41.875l-.2-.156h-.078a16.37,16.37,0,0,0-2.7,1.758.482.482,0,0,0-.273.117h-.312a1.175,1.175,0,0,1-.586-.742,22.8,22.8,0,0,1,1.68-3.32q0-.2-.391-.391a12.167,12.167,0,0,1-3.125,1.68q-.781-.391-.781-.977a20.981,20.981,0,0,1,1.563-3.75v-.117q0-.117-.234-.273a10.73,10.73,0,0,0-2.3,1.367,5.2,5.2,0,0,1-.547.2q-.742-.312-.742-.859v-.039a14.8,14.8,0,0,1,1.367-2.93,6.526,6.526,0,0,0,.391-1.055l-.117-.039a5.1,5.1,0,0,1-1.484.7h-.156q-.508-.391-.508-.7a14.117,14.117,0,0,1,1.25-2.93v-.2q-.2-1.055-.352-1.055a6.622,6.622,0,0,1-1.172.391q-.625-.352-.625-.82v-.078a12.162,12.162,0,0,1,1.289-2.773v-.078q0-.859-.312-.859-1.367-.039-1.367-1.094a18.978,18.978,0,0,1,1.758-3.086Q14.023-66.289,14.531-66.289Zm4.336.781q1.172.547,1.172,1.172A3.59,3.59,0,0,1,18.2-61.6a1.574,1.574,0,0,1-.625.117,1.743,1.743,0,0,1-1.094-1.758v-.352q0-1.641.977-1.641.391.078.391.2v.117q0,.117-.586.273a1.144,1.144,0,0,0-.273.7v.7q.117.977.781.977a3.206,3.206,0,0,0,1.563-1.68l.039-.391v-.234q0-.313-.9-.664v-.2A.618.618,0,0,0,18.867-65.508ZM12.5-60.625a.921.921,0,0,0,.391.117h.547v-.117q0-.547.039-1.758h-.039A4.05,4.05,0,0,0,12.5-60.625Zm1.133,2.969a6.044,6.044,0,0,0-.742,1.641v.039h.078q.977-.234.977-.43Q13.828-57.656,13.633-57.656Zm1.016,1.836q.039.508.2.508a1.773,1.773,0,0,0,.313-.7.38.38,0,0,0-.2-.078Q14.687-55.977,14.648-55.82Zm5.391-.352h.273a.89.89,0,0,1,.82.469l-.117.078q-.078,0-.664-.078a1.742,1.742,0,0,0-.781,1.68,1.7,1.7,0,0,0,.664,1.367h.391q.508,0,.781-.781v-.312l-.312-.391v-.117h.039q.977.391.977.82,0,1.016-1.367,1.641h-.2q-1.055,0-1.484-1.875A2.818,2.818,0,0,1,20.039-56.172ZM8.945-54.453h.117q.156,0,.273.313a6.115,6.115,0,0,0-.117.781q.156,2.344.391,2.344l.625-.2q.469,0,.469,1.094l-.664,2.148q.391,1.992.586,1.992a2.408,2.408,0,0,1,.977-.312h.078q.586,0,.586,1.094a7.3,7.3,0,0,1-.781,2.07v.313A9.444,9.444,0,0,0,12.7-39.961a3.874,3.874,0,0,1,.781-.2h.078q.664,0,.664,1.133a6.955,6.955,0,0,1-.391,1.367,20.666,20.666,0,0,0,1.914,3.242l.156.039a2.994,2.994,0,0,1,.781-.117h.039q.469,0,.586.977v.039a4.191,4.191,0,0,0-.117.938,15.555,15.555,0,0,0,2.266,2.5,4.656,4.656,0,0,1,.977-.391q.9,0,.9,1.055v.078a2.1,2.1,0,0,1-.234.82,10.122,10.122,0,0,0,1.875,1.68,2.918,2.918,0,0,1,1.094-.508h.117q.586,0,.586.977l-1.484,3.945-.273,1.172v.273q0,.43.586.43l1.758-.2h.469q.078,0,.2.2a3.537,3.537,0,0,1-2.266.742q-.937,0-1.367-1.328v-.312a15.715,15.715,0,0,1,1.289-4.219q0-.2-.586-.312a11.261,11.261,0,0,1-3.047,1.8,1.13,1.13,0,0,1-.9-1.094,15.477,15.477,0,0,1,1.094-3.086q0-.2-.7-.781a11.065,11.065,0,0,1-3.125,1.523h-.273a1.469,1.469,0,0,1-.82-1.406,28.44,28.44,0,0,1,1.016-3.633,1.939,1.939,0,0,0-.586-.781h-.117q-2.734,1.758-3.437,1.758-.82-.469-.82-1.055v-.43a23.915,23.915,0,0,1,1.6-4.336l.078-.352a8.614,8.614,0,0,1-.547-1.094h-.039a10.258,10.258,0,0,0-1.68.859,1.379,1.379,0,0,1-.547.117q-.625,0-.9-.977v-.273A20.737,20.737,0,0,1,10.7-43.047v-.078q-.391-1.68-.586-1.68a3.389,3.389,0,0,1-.9.391,1.022,1.022,0,0,1-.859-1.055v-.039a22.209,22.209,0,0,1,.977-2.93q0-1.445-.469-1.445a.78.78,0,0,1-.9-.742l.7-2.148q0-.156-.039-.547Q8.672-54.453,8.945-54.453Zm4.922,2.891a.069.069,0,0,1,.078.078,2.983,2.983,0,0,0,1.172-.7q-.312-1.133-.469-1.133A5.3,5.3,0,0,0,13.867-51.562Zm-5.039.547-.156.234.156.078a.1.1,0,0,0,.117-.117V-50.9A.1.1,0,0,0,8.828-51.016Zm5.508,3.672h.117a10.51,10.51,0,0,0,2.266-1.289q.156,0,.156-.273a5.018,5.018,0,0,1-.937-1.523H15.82A14.64,14.64,0,0,0,14.336-47.344ZM9.648-50.2v.117l.078.469H9.8q.117,0,.234-.781Q9.648-50.313,9.648-50.2Zm8.242,3.242A12.464,12.464,0,0,0,16.6-43.711h.117A7.833,7.833,0,0,0,19.375-45.2v-.078l-1.367-1.68ZM9.063-45.391l.078.117A1.289,1.289,0,0,0,10-45.664a2.647,2.647,0,0,0-.391-1.211Q9.414-46.875,9.063-45.391Zm1.719.313q.2.977.391.977h.039l.391-1.367a.643.643,0,0,0-.2-.039Q10.781-45.2,10.781-45.078ZM20.7-43.594a13.446,13.446,0,0,0-1.328,2.539h.2A21.838,21.838,0,0,0,21.8-42.617a3.222,3.222,0,0,0-.977-.977Zm2.109,1.172v.273h.2v-.273Zm-11.8.469A14.461,14.461,0,0,0,10-38.828l.117.039h.273q1.68-.664,1.68-.9Q11.289-41.914,11.016-41.953ZM5.7-41.094l.313.2q-.039.625-.039.938v.586q0,.156.508.2a.989.989,0,0,1,.2.586v.078a9.712,9.712,0,0,1-.469,1.8,9.476,9.476,0,0,0,.469,2.344,7.466,7.466,0,0,1,.9-.117H7.93q.273,0,.43,1.172a19.181,19.181,0,0,1-.7,2.5v.078a14.1,14.1,0,0,0,1.211,2.93h.078L9.8-27.93q.352,0,.508.938A4.593,4.593,0,0,1,10-25.625a23.772,23.772,0,0,0,2.109,3.4,3.205,3.205,0,0,1,.938-.156q.586,0,.781,1.055v.313a2.309,2.309,0,0,1-.156.781,20.594,20.594,0,0,0,2.852,3.242l.781-.078q.508,0,.664,1.055,0,.508.9,1.172a16.011,16.011,0,0,0,1.758,1.484,6.181,6.181,0,0,1,1.289-.391q.664.156.664,1.172l-.156.664a11.047,11.047,0,0,0,2.656,1.68,5.092,5.092,0,0,1,1.563-.469h.547q.7.234.7,1.953.117,0,.117.313-.313,0-.391.977-.039.859-.2.859H27.3q-.313-.117-.391-.977a5.663,5.663,0,0,0,.117-.977l-1.8-.781h-.156a6.911,6.911,0,0,1-3.086,1.367,1.44,1.44,0,0,1-1.055-1.367.481.481,0,0,1,.078-.273.42.42,0,0,1-.078-.234,10.7,10.7,0,0,0,.586-2.07,2.7,2.7,0,0,1-.625-.469H20.82a17.6,17.6,0,0,0-2.266,1.289,2.753,2.753,0,0,1-1.094.391h-.2a1.313,1.313,0,0,1-1.055-1.289q0-.312.9-3.711v-.039l-.391-.352a27.138,27.138,0,0,0-3.164,1.836,3.1,3.1,0,0,1-.859.2q-.977-.547-.977-1.289a36.118,36.118,0,0,1,1.172-4.687v-.117q-.664-1.094-.9-1.094h-.078a10.013,10.013,0,0,1-2.852,1.211q-.742,0-1.094-1.289a16.326,16.326,0,0,1,1.289-4.336q-.391-1.055-.586-1.055H8.633a3.967,3.967,0,0,1-1.445.664h-.43a1.417,1.417,0,0,1-.781-1.328v-.2a24.206,24.206,0,0,1,.977-3.594,9.393,9.393,0,0,1-.586-1.914H6.211a3.272,3.272,0,0,1-1.016.273,1.042,1.042,0,0,1-.781-1.055v-.312a17.192,17.192,0,0,1,1.094-3.047.38.38,0,0,1,.078-.2,10.511,10.511,0,0,1-.2-2.461v-.508Q5.469-41.094,5.7-41.094Zm7.344,1.8a1.773,1.773,0,0,0,.2.664h.2l.039-.469v-.117q0-.156-.117-.156Zm4.219.2q1.406,0,1.406,1.094T17.3-36.367h-.039q-.664,0-1.055-1.172v-.273q.273-1.289.859-1.289ZM16.8-37.617q.117.312.273.313h.117q.586,0,.781-1.094a1.349,1.349,0,0,1-.312-.234H17.5A.9.9,0,0,0,16.8-37.617Zm-3.359.859a16.134,16.134,0,0,0-1.445,4.219l.117.039h.2a8.54,8.54,0,0,0,2.93-1.6v-.117a23.227,23.227,0,0,1-1.562-2.539ZM5.625-35.586a10.783,10.783,0,0,0-.586,1.875l.156.039h.039a1.04,1.04,0,0,0,.859-.391q-.2-1.523-.391-1.523Zm1.25,2.266.313,1.172h.078q.156,0,.391-1.172v-.352q-.2,0-.2-.039Q6.875-33.516,6.875-33.32Zm9.453-.391v.2l.273.039v-.234Zm-.312,4.8v.43q.039.156.117.156a6.207,6.207,0,0,0,2.656-1.328h.078v-.117a16.737,16.737,0,0,0-1.875-2.07h-.078A12.106,12.106,0,0,0,16.016-28.906Zm8.672-2.148q1.133.391,1.133.625,0,.117-.273.2a1.232,1.232,0,0,0-.664-.2h-.2q-.078,0-.234.273v.313q.234,1.25,1.211,1.25h.078q1.094-.469,1.094-1.172,0-.273-.625-.9v-.078h.117q1.25.273,1.25.859v.313q0,1.055-1.641,1.758h-.391q-1.328,0-1.6-2.422Q24.023-31.055,24.688-31.055ZM7.344-29.766A7.353,7.353,0,0,0,6.6-27.187v.2q0,.117.273.2a3.935,3.935,0,0,0,1.484-.7A21.141,21.141,0,0,0,7.344-29.766Zm-5.859,0h.156q.078,0,.234.273v.117q0,.2-.078.2.352,3.32.586,4.414h.156a1.944,1.944,0,0,1,.9-.312h.117q.547,0,.547,1.133v.078a4.738,4.738,0,0,1-.742,2.07l.078.273a1.224,1.224,0,0,0-.273.586,13.886,13.886,0,0,0,1.367,4.063q.664,0,.781,1.172l-.078.586a23.316,23.316,0,0,0,4.1,5.977A9.164,9.164,0,0,0,10.82-7.93a.643.643,0,0,1-.039.2,6.588,6.588,0,0,1,.117.859,14.492,14.492,0,0,0-.586,3.242q0,.273.586.664v.234q-.078.2-.391.2-.625,0-.977-1.289a17.942,17.942,0,0,1,.586-3.047L10-6.953A23.522,23.522,0,0,0,7.852-5.234a2.644,2.644,0,0,1-1.289.625Q5.781-5,5.781-5.586A25.687,25.687,0,0,1,6.953-9.609v-.312H6.875a6.782,6.782,0,0,0-1.289.781,3.281,3.281,0,0,1-1.445.859q-.82,0-1.094-1.25a18.915,18.915,0,0,1,1.094-4.414l.352-1.367v-.2q-.2-.312-.273-.312l-2.07.977q-.039,0-.391.078Q.9-15.2.9-15.742v-.273a31.377,31.377,0,0,1,1.563-5v-.117a14.479,14.479,0,0,0-.508-2.344,6.311,6.311,0,0,1-.9.391q-.82,0-1.055-1.172a22.167,22.167,0,0,1,1.172-3.32l-.078-.312q.117,0,.2-.2v-.391a5.477,5.477,0,0,0-.039-.586Q1.328-29.766,1.484-29.766Zm18.555.391q.273.313.313.313h.078q.117,0,.2-.508h-.2Q20.039-29.531,20.039-29.375Zm.781,1.641a11.307,11.307,0,0,0-.9,2.773h.039a7.821,7.821,0,0,0,2.422-1.484v-.078A5.731,5.731,0,0,0,20.82-27.734Zm-11.562.82q.117.273.2.273l.156-.2v-.273h-.2Q9.258-27.109,9.258-26.914Zm4.18-.117h.117a.1.1,0,0,1,.117.117v.117a1.251,1.251,0,0,0-.312.781.886.886,0,0,0,.508.742h.2q.547,0,.781-.859,0-.2-.7-.664v-.117a.555.555,0,0,0,.313-.078q1.055.273,1.055.938v.234q-.469,1.445-1.289,1.445a1.437,1.437,0,0,1-1.328-1.562v-.273Q12.891-27.031,13.438-27.031Zm10.234.7v.078a.1.1,0,0,0,.117.117h.156v-.273A.481.481,0,0,1,23.672-26.328ZM.781-23.984H.9a1.078,1.078,0,0,0,.9-.469v-.039a7.238,7.238,0,0,0-.234-1.523q-.313,0-.781,1.953Zm8.867-.781a14.636,14.636,0,0,0-.977,3.828l.156.039h.234a5.627,5.627,0,0,0,2.461-1.133v-.078Q9.8-24.727,9.8-24.766Zm-7.109.977L2.852-22.3q.234,0,.586-1.758v-.078a.1.1,0,0,0-.117-.117A2.081,2.081,0,0,0,2.539-23.789Zm10.117,2.266v.078q.312.43.391.43a.1.1,0,0,0,.117-.117v-.2l-.078-.312h-.312A.1.1,0,0,0,12.656-21.523Zm-9.922,1.8A23.214,23.214,0,0,0,1.641-15.7H1.8a7.855,7.855,0,0,0,2.109-1.016q-.469-1.172-1.055-2.93Zm10.742.391a17.456,17.456,0,0,0-1.016,4.375l.117.039H12.7a9.757,9.757,0,0,0,3.242-1.68h.078v-.117a29.2,29.2,0,0,0-2.461-2.617Zm7.266,0h.391a.726.726,0,0,1,.469.664l-.156.078a.845.845,0,0,1-.43-.2h-.2q-.9.273-.9,1.6,0,.742.586.859h.2a2.044,2.044,0,0,0,.9-1.523v-.117l-.078-.312.313-.117q.391.078.391,1.016a2.561,2.561,0,0,1-1.016,1.758,1.281,1.281,0,0,1-.586.2q-1.055,0-1.25-1.836V-17.3Q19.688-19.336,20.742-19.336Zm6.484,3.32q.781.117.781.664v.039q0,.156-.2.156a2.07,2.07,0,0,1-.391-.273h-.312a2.164,2.164,0,0,0-.586,1.6q.2.938.9.938.43,0,1.055-1.055.117-.469.117-.508a1.23,1.23,0,0,1-.117-.469.754.754,0,0,1,.391-.117h.039a.428.428,0,0,1,.273.43v.586q0,1.172-1.6,1.953h-.352a1.487,1.487,0,0,1-1.172-1.484l-.039-.391a1.917,1.917,0,0,1,1.016-1.992A.38.38,0,0,1,27.227-16.016ZM9.141-15.43h.2a.1.1,0,0,1,.117.117v.352a1.442,1.442,0,0,0-.312,1.094.716.716,0,0,0,.391.7h.313q.625,0,.859-1.289,0-.312-.859-.586v-.078q0-.117.391-.2l.156.078.117-.078q.859.234.859.859v.2a2.507,2.507,0,0,1-.859,1.758,1.26,1.26,0,0,1-.7.234,1.6,1.6,0,0,1-1.25-1.758A1.566,1.566,0,0,1,9.141-15.43Zm7.773,3.711q.117.234.2.234a6.561,6.561,0,0,0,2.93-1.484v-.078l-2.148-1.914h-.039q-.2,0-.859,2.773A.941.941,0,0,1,16.914-11.719Zm-11.992-2.5a19.917,19.917,0,0,1-.781,2.734,5.99,5.99,0,0,0-.312,2.266.481.481,0,0,0,.273.078A17.8,17.8,0,0,0,6.6-10.7q.586-.117.586-.273a14.649,14.649,0,0,1-2.07-3.242ZM21.406-12.7l.234.2H21.8a1.185,1.185,0,0,1,.039-.352.643.643,0,0,0-.2-.039Q21.406-12.813,21.406-12.7Zm.82,1.406a7.3,7.3,0,0,0-.508,2.148v.313h.273A5.648,5.648,0,0,0,24.375-9.8a10.072,10.072,0,0,0-2.07-1.484ZM7.734-10.2A11.947,11.947,0,0,1,6.8-6.875a13.208,13.208,0,0,0-.312,1.289.38.38,0,0,0,.2.078A12.846,12.846,0,0,0,9.453-7.656a1.648,1.648,0,0,1,.664-.273v-.2q-.391,0-2.266-1.992Zm18.281.547a3.438,3.438,0,0,0,1.172.508V-9.8q0-.078-.2-.2Q26.055-9.883,26.016-9.648ZM15.9-7.852l.313.078q.82-.078.859-.078,1.133.234,1.133.977l.078.313q0,1.016-1.953,2.266h-.391q-1.133,0-1.289-2.07Q14.922-7.852,15.9-7.852Zm-.664,1.641v.234a.816.816,0,0,0,.586.859q1.211,0,1.758-1.641V-6.8a1.229,1.229,0,0,0-.586-.469q-.078,0-.664.078a2.349,2.349,0,0,0-.391-.078A1,1,0,0,0,15.234-6.211Zm8.359,1.523a1.826,1.826,0,0,1,1.289.469v.2l-.039.117a4.368,4.368,0,0,0-1.055-.2q-1.68,0-2.07,2.148v.508a.908.908,0,0,0,.781.586q1.406,0,2.578-2.3a2.349,2.349,0,0,1,.078-.391.481.481,0,0,1-.078-.273l.352-.312h.039q.273,0,.352.9,0,1.211-2.227,2.969A2.393,2.393,0,0,1,22.813,0h-.391q-1.211-.469-1.211-1.445v-.9q.664-2.148,1.68-2.148Q22.891-4.57,23.594-4.687Z" transform="translate(1306.434 -438.948) rotate(110)" fill="#ba1654"/>
  </g>
</svg>
